<?xml version="1.0" standalone="no"?><!DOCTYPE svg PUBLIC "-//W3C//DTD SVG 1.1//EN" "http://www.w3.org/Graphics/SVG/1.1/DTD/svg11.dtd"><svg t="1505272156320" class="icon" style="" viewBox="0 0 1024 1024" version="1.1" xmlns="http://www.w3.org/2000/svg" p-id="4054" xmlns:xlink="http://www.w3.org/1999/xlink" width="16" height="16"><defs><style type="text/css"></style></defs><path d="M639.82592 402.45248l-405.29408 0.01024a22.42048 22.42048 0 0 0-22.47168 22.3232 22.4256 22.4256 0 0 0 22.47168 22.33856l405.29408-0.00512a22.44096 22.44096 0 0 0 22.45632-22.34368 22.13376 22.13376 0 0 0-6.50752-15.73888 22.41536 22.41536 0 0 0-15.9488-6.58432z m0 170.19904H234.53184a22.4256 22.4256 0 0 0-22.47168 22.31808 22.4256 22.4256 0 0 0 22.47168 22.3488l405.29408-0.01024a22.43584 22.43584 0 0 0 22.45632-22.34368c0-5.94432-2.30912-11.52-6.50752-15.73888a22.3232 22.3232 0 0 0-15.9488-6.57408z m-157.7984 170.18368l-247.49568 0.01024a22.41536 22.41536 0 0 0-22.47168 22.3232 22.42048 22.42048 0 0 0 22.47168 22.32832l247.49568-0.01024a22.40512 22.40512 0 0 0 22.44608-22.31808 22.1696 22.1696 0 0 0-6.49728-15.74912 22.2976 22.2976 0 0 0-15.9488-6.58432z" fill="#cdcdcd" p-id="4055"></path><path d="M853.45792 66.56H320.06656c-13.43488 0-96.96768 0-96.96768 96.6656v69.28384H170.38848c-13.43488 0-96.96768 0-96.96768 96.6656v531.59424C73.4208 957.44 170.38848 957.44 170.38848 957.44h533.4016c27.9808 0 47.65184-8.12544 61.86496-19.60448 0.87552-0.72704 1.83296-1.3568 2.7136-2.06336a84.60288 84.60288 0 0 0 8.85248-9.01632c0.72704-0.95744 1.36704-1.82272 2.08896-2.8672 21.43744-27.89376 21.59104-63.20128 21.59104-63.20128v-69.21216h52.54656c27.99104 0 47.65696-8.12544 61.87008-19.59936 0.8704-0.72704 1.83296-1.36192 2.70848-2.06848a84.53632 84.53632 0 0 0 8.8576-9.00608c0.72704-0.96256 1.36192-1.82272 2.08896-2.87744 21.44256-27.89376 21.59616-63.20128 21.59616-63.20128V163.2256C950.5024 66.56 866.88256 66.56 853.45792 66.56z m-94.6432 763.52s-0.09728 31.21152-19.07712 55.88992a23.8592 23.8592 0 0 1-1.83808 2.56512 62.14656 62.14656 0 0 1-7.78752 7.95648l-2.39616 1.82784c-12.55424 10.15808-30.01344 17.3824-54.70208 17.3824H201.07776s-85.80608 0-85.80608-85.5296V359.82848c0-85.53984 73.96864-85.53984 85.80608-85.53984h471.936c11.95008 0 85.8112 0 85.8112 85.53984l-0.01024 470.25152z m149.67296-165.93408s-0.09728 31.19616-19.08224 55.87968a23.53664 23.53664 0 0 1-1.82784 2.57024 63.56992 63.56992 0 0 1-7.79264 7.95648l-2.39616 1.82272c-12.56448 10.15296-30.01344 17.38752-54.70208 17.38752h-21.79584V329.1648c-0.07168-96.65536-83.70176-96.65536-97.12128-96.65536H264.94976v-38.6304c0-85.53984 73.97376-85.53984 85.80608-85.53984h471.94624c11.93984 0 85.80096 0 85.80096 85.53984l-0.01536 470.26688z" fill="#cdcdcd" p-id="4056"></path></svg>