<?xml version="1.0" standalone="no"?><!DOCTYPE svg PUBLIC "-//W3C//DTD SVG 1.1//EN" "http://www.w3.org/Graphics/SVG/1.1/DTD/svg11.dtd"><svg t="1505271439277" class="icon" style="" viewBox="0 0 1024 1024" version="1.1" xmlns="http://www.w3.org/2000/svg" p-id="3860" xmlns:xlink="http://www.w3.org/1999/xlink" width="16" height="16"><defs><style type="text/css"></style></defs><path d="M184.27156250000002 590.0984374999998l209.09718750000002 8.526512829121202e-14c-81.02343750000006 299.23687499999994 55.82531249999988 314.5190625 55.82531249999988 314.5190625 58.00031250000001 1.7763568394002505e-14 45.97687500000001-45.86062499999998 50.358750000000015-53.508749999999985 5.684341886080802e-14-146.34 155.43375000000006-261.0065624999999 155.43375000000006-261.0065624999999l1.1368683772161603e-13-414.99468749999994c1.0658141036401503e-14-40.9640625-55.82531249999998-55.718437500000014-77.72624999999998-55.71843750000002l-314.1665625-1.1368683772161603e-13c-29.565937500000004-8.881784197001252e-15-53.64468750000002 77.5396875-53.64468750000002 77.5396875-77.72156250000008 264.29156249999994-77.72156250000009 342.92718749999995-77.72156250000009 342.92718749999995-0.0009375000000133582 54.606562499999995 52.54312499999998 50.241562500000015 52.54312499999998 50.241562500000015v0 0zM184.27156250000002 590.0984374999998z" fill="#f44978" p-id="3861"></path><path d="M740.8034375 589.9615625000001l125.2059375 3.552713678800501e-14c25.857187499999995 3.552713678800501e-15 26.25562500000002-25.39687499999999 26.25562500000002-25.39687499999999l-25.857187499999952-418.5384375c8.881784197001252e-15-26.64-26.684999999999985-26.64000000000001-26.684999999999985-26.64000000000001l-108.3684375-3.552713678800501e-14c-22.575937499999995-5.329070518200751e-15-22.3734375 17.62312499999999-22.3734375 17.62312499999999l-1.7053025658242404e-13 421.21500000000003c-1.0658141036401503e-14 32.14406249999999 31.823437499999983 31.73812500000001 31.823437499999983 31.73812500000001v0 0zM740.8034375 589.9615625000001z" fill="#f44978" p-id="3862"></path></svg>