<?xml version="1.0" standalone="no"?><!DOCTYPE svg PUBLIC "-//W3C//DTD SVG 1.1//EN" "http://www.w3.org/Graphics/SVG/1.1/DTD/svg11.dtd"><svg t="1505271882548" class="icon" style="" viewBox="0 0 1024 1024" version="1.1" xmlns="http://www.w3.org/2000/svg" p-id="13050" xmlns:xlink="http://www.w3.org/1999/xlink" width="16" height="16"><defs><style type="text/css"></style></defs><path d="M516.266667 512m-469.333334 0a469.333333 469.333333 0 1 0 938.666667 0 469.333333 469.333333 0 1 0-938.666667 0Z" fill="#34D760" p-id="13051"></path><path d="M514.184533 263.7312c-9.4464 0-18.730667 0.571733-27.8528 1.646933-22.357333 2.525867-43.793067 8.1152-63.9488 16.2304 0 0 166.1696 164.445867 170.589867 170.564267V276.804267a244.753067 244.753067 0 0 0-78.788267-13.073067zM687.752533 335.172267a242.218667 242.218667 0 0 0-20.8384-18.525867 245.077333 245.077333 0 0 0-56.686933-33.732267s1.220267 233.719467 0 241.1776l124.032-124.014933a237.602133 237.602133 0 0 0-7.466667-13.909333 245.111467 245.111467 0 0 0-39.04-50.9952zM742.203733 419.5328S577.809067 585.685333 571.656533 590.1056h175.3856a249.856 249.856 0 0 0 4.590934-15.112533c5.486933-20.343467 8.482133-41.634133 8.482133-63.675734 0-9.4208-0.5888-18.722133-1.672533-27.8528a243.626667 243.626667 0 0 0-16.238934-63.931733zM498.312533 608.5632L622.344533 732.586667a249.045333 249.045333 0 0 0 13.943467-7.458134 245.128533 245.128533 0 0 0 51.0208-39.04 252.689067 252.689067 0 0 0 18.5088-20.8384 245.521067 245.521067 0 0 0 33.723733-56.704c-0.008533 0-233.7536 1.237333-241.2288 0.017067zM434.670933 569.6256v175.3856a243.7888 243.7888 0 0 0 78.7968 13.064533c9.3952 0 18.696533-0.580267 27.8016-1.629866 22.357333-2.56 43.810133-8.1152 63.957334-16.264534 0.0256-0.008533-166.126933-164.4032-170.555734-170.555733zM417.211733 496.477867l-123.989333 124.0064c2.321067 4.744533 4.829867 9.3952 7.466667 13.943466a240.887467 240.887467 0 0 0 59.886933 69.538134 244.232533 244.232533 0 0 0 56.712533 33.732266c-0.008533 0-1.271467-233.736533-0.0768-241.220266zM275.985067 446.9248a244.872533 244.872533 0 0 0-8.456534 63.684267c0 9.403733 0.5888 18.7136 1.664 27.8272a241.194667 241.194667 0 0 0 16.247467 63.914666s164.386133-166.135467 170.538667-170.5472H280.576a248.2688 248.2688 0 0 0-4.590933 15.121067zM390.1696 297.634133a244.590933 244.590933 0 0 0-51.0208 39.0144 245.384533 245.384533 0 0 0-18.525867 20.846934 245.7344 245.7344 0 0 0-33.749333 56.721066s233.770667-1.245867 241.245867-0.042666L404.104533 290.167467c-4.718933 2.363733-9.386667 4.829867-13.934933 7.466666z" fill="#FFFFFF" p-id="13052"></path></svg>