<?xml version="1.0" standalone="no"?><!DOCTYPE svg PUBLIC "-//W3C//DTD SVG 1.1//EN" "http://www.w3.org/Graphics/SVG/1.1/DTD/svg11.dtd"><svg t="1505378602732" class="icon" style="" viewBox="0 0 1025 1024" version="1.1" xmlns="http://www.w3.org/2000/svg" p-id="2402" xmlns:xlink="http://www.w3.org/1999/xlink" width="200.1953125" height="200"><defs><style type="text/css"></style></defs><path d="M513.6 1024c-282.4 0-512-229.6-512-512s229.6-512 512-512 512 229.6 512 512-229.6 512-512 512z m0-987.2C251.2 36.8 37.6 249.6 37.6 512s212.8 475.2 475.2 475.2 475.2-212.8 475.2-475.2S776 36.8 513.6 36.8z" fill="#ffffff" p-id="2403"></path><path d="M300.8 505.6H448v127.2c-28.8 37.6-79.2 56-150.4 56-111.2-4.8-169.6-63.2-176-176 4.8-120.8 60.8-184 168.8-188.8 78.4 1.6 129.6 34.4 154.4 100L408 432.8c-19.2-52.8-60-80-121.6-81.6-80 8.8-123.2 61.6-130.4 159.2 6.4 95.2 52 147.2 137.6 154.4 56.8 0 97.6-15.2 123.2-45.6V532.8H300.8v-27.2zM532.8 329.6h31.2v353.6h-31.2V329.6zM895.2 356.8h-204.8v130.4h177.6l1.6 27.2h-179.2v168.8h-31.2V329.6h236v27.2z" fill="#ffffff" p-id="2404"></path></svg>