<?xml version="1.0" standalone="no"?><!DOCTYPE svg PUBLIC "-//W3C//DTD SVG 1.1//EN" "http://www.w3.org/Graphics/SVG/1.1/DTD/svg11.dtd"><svg t="1505271644704" class="icon" style="" viewBox="0 0 1024 1024" version="1.1" xmlns="http://www.w3.org/2000/svg" p-id="9719" xmlns:xlink="http://www.w3.org/1999/xlink" width="16" height="16"><defs><style type="text/css"></style></defs><path d="M792.3 198.5h-214c-11.8 0-21.4 9.5-21.4 21.4 0 11.8 9.6 21.4 21.4 21.4h160.2L573.5 406c-44.4-33.6-98.6-51.8-154.3-51.8-141.9 0.1-256.8 115-256.8 256.7s115 256.6 256.8 256.6S676 752.6 676 610.9c0-67.6-26.3-128.9-69.1-174.8l163.9-163.8v140.1c0 11.8 9.5 21.4 21.4 21.4 11.8 0 21.4-9.5 21.4-21.4V220c0-5.7-2.2-11.2-6.3-15.2-3.8-4-9.3-6.3-15-6.3z m-158 412.4c0 118.6-96.2 214.7-215 214.7s-215-96.1-215-214.7c0-118.7 96.3-214.8 215-214.8 118.8 0.1 215 96.2 215 214.8z" fill="#cdcdcd" p-id="9720"></path></svg>