<?xml version="1.0" standalone="no"?><!DOCTYPE svg PUBLIC "-//W3C//DTD SVG 1.1//EN" "http://www.w3.org/Graphics/SVG/1.1/DTD/svg11.dtd"><svg t="1505271944792" class="icon" style="" viewBox="0 0 1024 1024" version="1.1" xmlns="http://www.w3.org/2000/svg" p-id="14412" xmlns:xlink="http://www.w3.org/1999/xlink" width="16" height="16"><defs><style type="text/css"></style></defs><path d="M511.994372 65.234812c-246.736767 0-446.75649 200.035072-446.75649 446.7657s200.051445 446.764676 446.75649 446.764676c246.773606 0 446.76877-200.028932 446.76877-446.764676C958.762118 265.269884 758.761838 65.234812 511.994372 65.234812M799.32676 451.958984l-127.789582 116.869871c-6.633077 6.210452-8.007379 9.190322-6.633077 17.818849l2.773163 14.88912c-61.78115-0.780783-130.525906-3.531433-186.279777-11.23796-4.546554-0.66208-0.331552-3.083225-0.331552-3.083225l181.246128-122.874638c0 0 7.16929-4.356219-0.506537-5.486973-9.911754-1.579986-30.671587-4.356219-30.627585-4.394081-36.674307-4.386918-76.93326-6.80397-119.195848-6.80397-71.624342 0-137.551933 6.963606-189.914564 18.654891 1.786694 0 3.560086-0.042979 5.339617-0.042979 77.488916 0 159.917336 2.881633 234.326097 14.252623 4.6847 0.621147-0.062422 3.506874-0.062422 3.506874l-181.007698 125.791063c0 0-7.601126 4.418641-0.599658 5.505393 18.730615 2.520406 38.490678 4.515855 59.064269 5.911646l0.106424-0.065492c23.395873 1.623989 47.803797 2.489706 72.941339 2.489706 68.094956 0 141.561251-7.413861 194.973795-19.923792l3.647067-0.696872c-8.949845 7.086403-23.933109 13.353136-39.391188 18.471719l25.819064 138.562961c2.811025 14.893213-5.876853 20.878537-19.286271 13.293784l-150.955211-85.242515c-10.342566-6.260594-20.067055-6.071282-30.628608 0.4083l-150.21229 84.833192c-13.409418 7.578613-22.046131 1.620919-19.198267-13.286621l33.738439-173.664445c1.767252-7.800671 1.654688-10.222839-4.546554-15.890938l-131.600379-118.341387c-11.211354-10.4582-7.762809-20.24204 7.644105-21.756535l167.724147-18.415437c13.041027-1.208526 15.53278-3.228534 20.91026-12.13847l78.918476-160.710399c6.77634-13.621242 17.843408-13.621242 24.613609 0l74.047534 160.710399c4.140301 10.532901 7.114032 12.557003 20.35972 13.765529l173.151768 16.788378C807.314696 431.935931 810.661934 441.631767 799.32676 451.958984" fill="#f4ea2a" p-id="14413"></path></svg>