<?xml version="1.0" standalone="no"?><!DOCTYPE svg PUBLIC "-//W3C//DTD SVG 1.1//EN" "http://www.w3.org/Graphics/SVG/1.1/DTD/svg11.dtd"><svg t="1505272280945" class="icon" style="" viewBox="0 0 1024 1024" version="1.1" xmlns="http://www.w3.org/2000/svg" p-id="5503" xmlns:xlink="http://www.w3.org/1999/xlink" width="16" height="16"><defs><style type="text/css"></style></defs><path d="M870.912 335.36c-0.512-37.888-1.024-78.848-1.024-124.416 0-13.824-9.216-25.6-22.016-29.696-106.496-31.232-201.216-49.664-327.68-63.488h-5.12c-64 3.072-123.904 11.264-178.176 23.552-54.272 12.288-105.984 26.112-154.112 40.448-12.8 4.096-22.016 15.872-22.016 29.696 0 40.96-0.512 78.336-1.024 113.152-3.072 298.496-4.608 409.6 292.352 571.392 24.576 13.312 44.544 19.456 64.512 19.456 19.968 0 39.424-5.632 64-18.944 295.936-158.208 294.912-251.392 290.304-561.152zM553.984 858.112c-15.872 8.192-27.136 12.288-36.864 12.288-9.728 0-20.48-3.584-36.352-12.288-277.504-151.04-276.48-233.984-272.896-542.72 0.512-29.696 0.512-61.44 1.024-95.232 42.496-12.288 87.04-24.064 134.144-34.304 52.736-11.776 111.104-19.456 173.568-23.04 117.76 12.8 208.896 29.696 306.688 57.344 0 38.4 0.512 73.728 1.024 107.008 4.096 317.44 5.12 383.488-270.336 530.944z" p-id="5504" fill="#cdcdcd"></path><path d="M516.096 640c18.944 0 33.792 15.36 33.792 33.792 0 18.944-15.36 33.792-33.792 33.792-18.944 0-33.792-15.36-33.792-33.792-0.512-18.432 14.848-33.792 33.792-33.792z m0 0M495.616 278.528h40.96V547.84h-40.96z" p-id="5505" fill="#cdcdcd"></path></svg>