<?xml version="1.0" standalone="no"?><!DOCTYPE svg PUBLIC "-//W3C//DTD SVG 1.1//EN" "http://www.w3.org/Graphics/SVG/1.1/DTD/svg11.dtd"><svg t="1505271982519" class="icon" style="" viewBox="0 0 1024 1024" version="1.1" xmlns="http://www.w3.org/2000/svg" p-id="16244" xmlns:xlink="http://www.w3.org/1999/xlink" width="16" height="16"><defs><style type="text/css"></style></defs><path d="M511.176 50.225c-248.116 0-449.258 201.142-449.258 449.254 0 248.103 201.142 449.272 449.258 449.272 248.111 0 449.253-201.172 449.253-449.272C960.428 251.368 759.287 50.225 511.176 50.225zM759.818 470.807c-2.144 14.845-9.517 16.032-18.282 16.032-10.49 0-18.979-6.611-18.979-17.106 0-9.103 3.768-18.353 3.768-18.353 1.116-3.827 9.995-27.659-5.853-63.234-29.003-48.766-87.443-49.491-94.342-46.707-6.951 2.725-17.238 4.116-17.238 4.116-10.547 0-19.021-8.611-19.021-19.048 0-8.785 5.866-16.207 13.864-18.468 0 0 0.173-0.291 0.464-0.349 0.579-0.116 1.159-0.71 1.797-0.768 8.127-1.551 37.144-7.263 65.337-0.652 50.473 11.8 119.751 60.624 88.602 164.536L759.818 470.806zM622.018 400.643c-7.242 0-13.068-5.857-13.068-13.062 0-7.32 5.826-13.176 13.068-13.176 0 0 81.577-15.105 71.828 72.627 0 0.522-0.059 0.928-0.174 1.391-0.927 6.205-6.39 10.975-12.821 10.975-7.258 0-13.17-5.813-13.17-13.062C667.681 446.335 680.604 387.697 622.018 400.643zM628.623 425.433c22.109 22.121 3.651 52.55 3.651 52.55s-9.154 10.162 9.708 13.814c18.92 3.77 78.374 31.343 45.662 101.013-32.739 69.554-140.643 103.418-220.61 97.14-76-5.987-173.716-31.239-183.813-123.264 0 0-5.332-41.691 35.059-95.619 0 0 58.065-81.166 125.72-104.331 67.712-23.036 75.594 15.961 75.594 39.011-3.594 19.569-10.313 31.065 15.097 23.165C534.69 428.911 601.244 398.033 628.623 425.433zM472.945 475.59c-79.36 3.667-143.539 46.214-143.539 99.288 0 53.013 64.179 92.835 143.539 89.123 79.448-3.609 143.741-53.361 143.741-106.361C616.687 504.685 552.394 471.937 472.945 475.59zM407.913 630.5c-22.223-12.075-21.397-35.778-21.397-35.778s-9.243-74.831 70.61-84.165c79.941-9.293 94.226 67.12 69.916 98.519C502.731 640.476 454.633 655.81 407.913 630.5zM435.656 569.253c-14.922 1.551-25.584 14.568-25.584 26.993 0 12.479 11.995 21.075 26.917 19.324 14.834-1.685 26.917-13.163 26.917-25.603C463.905 577.501 452.779 567.615 435.656 569.253zM488.215 560.249c-2.666-4.42-8.809-5.682-14.734-1.275-5.113 3.711-6.157 10.785-3.375 15.207 2.665 4.539 8.895 5.061 13.937 1.276C488.968 571.557 490.88 564.772 488.215 560.249z" fill="#d81e06" p-id="16245"></path></svg>