<?xml version="1.0" standalone="no"?><!DOCTYPE svg PUBLIC "-//W3C//DTD SVG 1.1//EN" "http://www.w3.org/Graphics/SVG/1.1/DTD/svg11.dtd"><svg t="1505271730521" class="icon" style="" viewBox="0 0 1024 1024" version="1.1" xmlns="http://www.w3.org/2000/svg" p-id="11033" xmlns:xlink="http://www.w3.org/1999/xlink" width="16" height="16"><defs><style type="text/css"></style></defs><path d="M623.118 0C402.816 0 223.502 179.086 223.502 399.104c0 98.503 35.868 188.046 94.777 258.39L191.474 785.407 55.708 649.813c-12.8-12.8-33.308-12.8-44.828 0-12.8 12.8-12.8 33.252 0 44.772L145.364 831.46 9.6 968.334c-12.8 12.8-12.8 33.252 0 44.772 12.8 12.8 33.308 12.8 44.828 0L190.194 876.23l137.045 138.155c12.8 12.8 33.308 12.8 44.828 0 12.8-12.8 12.8-33.252 0-44.772L236.302 831.46l126.805-127.915a399.303 399.303 0 0 0 260.011 95.943c221.582 0 400.896-179.086 400.896-400.384C1024.014 179.086 844.7 0 623.118 0z m0 735.545c-185.714 0-336.84-150.955-336.84-336.441 0-185.486 151.126-335.16 336.84-335.16s336.868 149.674 336.868 335.16c0 186.766-151.154 336.44-336.868 336.44z" fill="#cdcdcd" p-id="11034"></path></svg>