<?xml version="1.0" standalone="no"?><!DOCTYPE svg PUBLIC "-//W3C//DTD SVG 1.1//EN" "http://www.w3.org/Graphics/SVG/1.1/DTD/svg11.dtd"><svg t="1505271563219" class="icon" style="" viewBox="0 0 1024 1024" version="1.1" xmlns="http://www.w3.org/2000/svg" p-id="7186" xmlns:xlink="http://www.w3.org/1999/xlink" width="16" height="16"><defs><style type="text/css"></style></defs><path d="M566.547692 857.915077a37.336615 37.336615 0 0 0 10.476308 31.428923 38.360615 38.360615 0 0 0 27.569231 12.012308c11.815385 0 21.897846-5.828923 28.908307-14.257231l379.510154-404.676923a37.691077 37.691077 0 0 0 10.909539-28.987077 37.612308 37.612308 0 0 0-10.909539-28.987077L631.374769 11.224615a38.596923 38.596923 0 0 0-54.429538 0 37.572923 37.572923 0 0 0-10.397539 31.428923v224.137847C286.72 266.791385 0 558.749538 0 874.023385c0.315077 37.139692 3.072 61.44 15.517538 108.701538 7.364923 27.963077 2.166154 7.719385 2.166154 7.719385 14.532923 41.038769 35.209846 40.211692 47.655385-1.063385 0 0-6.025846 12.721231 6.144-16.777846 78.611692-190.660923 278.252308-337.486769 495.064615-337.486769v222.798769z" p-id="7187" fill="#f44978"></path></svg>